<svg xmlns="http://www.w3.org/2000/svg" xmlns:xlink= "http://www.w3.org/1999/xlink" viewBox="0 0 34 30"><g id="Page-3-new-changes" stroke="none" stroke-width="1" fill="none" fill-rule="evenodd"><g id="E04_V2-Copy-10" transform="translate(-38.000000, -827.000000)"><g id="Stacked-Group" transform="translate(30.000000, 145.000000)"><g id="Group-16-Copy-2" transform="translate(0.000000, 670.000000)"><g id="Group-9"><g id="12--check-sheet-paper-payment-2" transform="translate(8.380000, 12.610000)"><path d="M32.8198927,19.6873054 C32.8439149,19.6033497 32.8300354,19.5129769 32.7835924,19.4391814 C32.7360818,19.3659207 32.6608122,19.3161889 32.5743322,19.3017507 C32.5417687,19.2958684 31.7778621,19.1723412 31.107909,19.1974744 C30.700065,19.2129822 30.4075278,19.2808954 30.2126808,19.4054922 C29.9078655,19.6001412 29.6959361,19.8996012 29.6073208,20.2493277 C29.3131821,20.1247309 28.9966226,20.1669762 28.7558665,20.3215189 C28.7553327,20.3215189 18.7001643,26.7449359 18.7001643,26.7449359 C18.4652803,26.8952007 18.3024631,27.1283517 18.2416068,27.4010742 C18.1828858,27.6727272 18.2319979,27.9534709 18.3820033,28.1887609 L18.7781031,28.8106752 C18.9772206,29.1224344 19.3300803,29.3063884 19.6989549,29.2924849 C19.8836591,29.2855332 20.0635589,29.2293844 20.2199702,29.1293862 L30.2746048,22.7059692 C30.5340448,22.5407314 30.6803134,22.2658699 30.6963282,21.9803134 C30.805229,22.0022382 30.9157312,22.0156069 31.0278349,22.0113289 C31.2771322,22.0017034 31.5205574,21.9257689 31.7319529,21.7904772 C32.3164937,21.4166869 32.7414201,19.9723272 32.8198927,19.6873054" id="Fill-3" fill-opacity="0.15" fill="#020202"></path><path d="M2.56897516,19.4994478 C2.93197763,21.0887248 4.5115722,22.082825 6.09810652,21.7197298 L32.6704211,15.6369485 C33.0670547,15.546041 33.3152843,15.150326 33.2245337,14.7530068 L30.2703342,1.80350078 C30.1801174,1.40618153 29.7845515,1.15805753 29.3879179,1.24896503 L2.81613714,7.33121153 C1.22906899,7.69430678 0.237218123,9.27770153 0.599686765,10.8664438 L2.56897516,19.4994478 Z" id="Fill-5" fill-opacity="0.15" fill="#020202"></path><path d="M19.7181727,27.787538 C19.3674482,27.9934168 18.9158305,27.8757718 18.7097732,27.5239063 L18.3376957,26.8875538 C18.1316384,26.5356883 18.2496142,26.0832898 18.6003386,25.8779458 L28.2401895,20.2181518 C28.380586,20.1358003 28.5482078,20.1122713 28.7056868,20.1539818 C28.8631658,20.1946228 28.998224,20.2972948 29.0798996,20.437934 L29.5768927,21.287117 C29.7482512,21.58016 29.650027,21.956624 29.3574897,22.1282788 L19.7181727,27.787538 Z" id="Fill-7" fill="#FF6242"></path><path d="M29.3286097,20.8620442 L18.523948,27.2057835 L18.3376423,26.8876072 C18.131585,26.5357417 18.2495608,26.0833432 18.6002852,25.8779992 L28.2401361,20.2182052 C28.3805326,20.1358537 28.5481544,20.1123247 28.7056334,20.1540352 C28.8631124,20.1946762 28.9981707,20.2968135 29.0798462,20.4379875 L29.3286097,20.8620442 Z" id="Fill-9" fill="#FF866E"></path><path d="M21.7784252,24.0119356 L22.8962593,25.9215279" id="Stroke-11" stroke="#1A1816" stroke-linecap="round" stroke-linejoin="round"></path><path d="M18.6004988,25.8778388 C18.188918,25.1741078 18.4248696,24.2703803 19.1268523,23.8580881 L22.9405136,21.6196246" id="Stroke-13" stroke="#1A1816" stroke-linecap="round" stroke-linejoin="round"></path><path d="M30.8482555,21.268989 C30.3219019,21.5780745 29.6444752,21.4005375 29.3364569,20.873274 C29.027371,20.3460105 29.2040678,19.6674127 29.7304214,19.358862 C30.2578426,19.0497765 31.8785419,19.3807867 31.8785419,19.3807867 C31.8785419,19.3807867 31.374609,20.9599035 30.8482555,21.268989" id="Fill-15" fill="#656769"></path><path d="M31.8783817,19.3810541 C31.8783817,19.3810541 30.2576825,19.0495091 29.7307951,19.3585946 C29.2039077,19.6676801 29.0272109,20.3462779 29.3362968,20.8735414 L31.8783817,19.3810541 Z" id="Fill-17" fill="#87898C"></path><path d="M30.8482555,21.268989 C30.3219019,21.5780745 29.6444752,21.4005375 29.3364569,20.873274 C29.027371,20.3460105 29.2040678,19.6674127 29.7304214,19.358862 C30.2578426,19.0497765 31.8785419,19.3807867 31.8785419,19.3807867 C31.8785419,19.3807867 31.374609,20.9599035 30.8482555,21.268989 Z" id="Stroke-19" stroke="#1A1816" stroke-linecap="round" stroke-linejoin="round"></path><path d="M19.7181727,27.787538 C19.3674482,27.9934168 18.9158305,27.8757718 18.7097732,27.5239063 L18.3376957,26.8875538 C18.1316384,26.5356883 18.2496142,26.0832898 18.6003386,25.8779458 L28.2401895,20.2181518 C28.380586,20.1358003 28.5482078,20.1122713 28.7056868,20.1539818 C28.8631658,20.1946228 28.998224,20.2972948 29.0798996,20.437934 L29.5768927,21.287117 C29.7482512,21.58016 29.650027,21.956624 29.3574897,22.1282788 L19.7181727,27.787538 Z" id="Stroke-21" stroke="#1A1816" stroke-linecap="round" stroke-linejoin="round"></path><path d="M4.13399625,6.08460233 L3.33966143,2.48092208 C3.29535378,2.28039083 3.15388958,2.11515308 2.96277946,2.04082283 C2.77113551,1.96595783 2.55493551,1.99216058 2.38731378,2.11034033 C1.67892514,2.60872733 1.30097551,3.50122508 1.49902538,4.40067458 L4.5183518,18.0913441 C4.78152859,19.2854408 5.96128662,20.0394383 7.15278884,19.7758066 L32.4497903,14.1785783 C32.7807632,14.1053176 32.9900234,13.7769811 32.9168891,13.4454361 L30.1628748,0.955280325 C30.0897404,0.623735325 29.7619706,0.414113325 29.4309977,0.487374075 L4.13399625,6.08460233 Z" id="Fill-23" fill="#FFFFFF"></path><path d="M30.4145209,12.3616582 L19.6242725,14.749317" id="Stroke-25" stroke="#87898C" stroke-linecap="round" stroke-linejoin="round"></path><path d="M16.0100491,8.62140285 C15.9748165,8.46204735 16.004177,8.29520535 16.0917246,8.1577746 C16.1792723,8.02034385 16.3180674,7.9235541 16.4771479,7.8882606 L28.2261498,5.2883061 C28.5571227,5.21504535 28.8848925,5.42466735 28.9580269,5.75621235 L29.4875834,8.15830935 C29.5607177,8.48985435 29.3514575,8.81819085 29.0204846,8.8914516 L17.2714827,11.4914061 C16.9405098,11.5646668 16.61274,11.3550448 16.5396056,11.0234998 L16.0100491,8.62140285 Z" id="Stroke-27" stroke="#87898C" stroke-linecap="round" stroke-linejoin="round"></path><path d="M28.3490902,2.99390775 L25.4717618,3.630795" id="Stroke-29" stroke="#87898C" stroke-linecap="round" stroke-linejoin="round"></path><path d="M7.32078425,13.692651 L7.63841141,15.1338023" id="Stroke-31" stroke="#1A1816" stroke-linecap="round" stroke-linejoin="round"></path><path d="M8.75960859,13.3743678 L9.07723575,14.8160538" id="Stroke-33" stroke="#1A1816" stroke-linecap="round" stroke-linejoin="round"></path><path d="M10.1978991,13.0560846 L10.5160601,14.4972358" id="Stroke-35" stroke="#1A1816" stroke-linecap="round" stroke-linejoin="round"></path><path d="M11.6367235,12.7379083 L11.9548844,14.1790596" id="Stroke-37" stroke="#1A1816" stroke-linecap="round" stroke-linejoin="round"></path><path d="M13.0750674,12.4195182 L13.3932283,13.8612042" id="Stroke-39" stroke="#1A1816" stroke-linecap="round" stroke-linejoin="round"></path><path d="M4.35916454,17.3710358 L14.4298139,15.1421978" id="Stroke-41" stroke="#87898C" stroke-linecap="round" stroke-linejoin="round"></path><path d="M5.56395906,12.569783 L13.4768791,10.8190115" id="Stroke-43" stroke="#87898C" stroke-linecap="round" stroke-linejoin="round"></path><path d="M4.13399625,6.08460233 L29.4309977,0.487374075 C29.7619706,0.414113325 30.0897404,0.623735325 30.1628748,0.955280325 L32.9168891,13.4454361 C32.9900234,13.7769811 32.7807632,14.1053176 32.4497903,14.1785783 L7.15278884,19.7758066 C5.96128662,20.0394383 4.78152859,19.2854408 4.5183518,18.0913441 C4.2904076,17.0587418 4.82263328,16.0357651 5.74188365,15.6074303 C6.00345896,15.4855073 6.14438933,15.1988813 6.08139773,14.9170681 L3.33966143,2.48145683 C3.29535378,2.28039083 3.15388958,2.11515308 2.96277946,2.04082283 C2.77113551,1.96595783 2.55493551,1.99216058 2.38731378,2.11034033 C1.67892514,2.60872733 1.30097551,3.50122508 1.49902538,4.40067458 L4.5183518,18.0913441" id="Stroke-45" stroke="#1A1816" stroke-linecap="round" stroke-linejoin="round"></path><path d="M17.6339513,9.14353275 L17.7930318,9.86437575" id="Stroke-47" stroke="#1A1816" stroke-linecap="round" stroke-linejoin="round"></path><path d="M19.7916807,8.6662149 L19.951295,9.38652315" id="Stroke-49" stroke="#1A1816" stroke-linecap="round" stroke-linejoin="round"></path><path d="M21.2310389,8.34777128 L21.3895855,9.06861428" id="Stroke-51" stroke="#1A1816" stroke-linecap="round" stroke-linejoin="round"></path><path d="M22.6693294,8.02948807 L22.8284099,8.75033107" id="Stroke-53" stroke="#1A1816" stroke-linecap="round" stroke-linejoin="round"></path><path d="M24.8275926,7.55217022 L24.9866731,8.27247847" id="Stroke-55" stroke="#1A1816" stroke-linecap="round" stroke-linejoin="round"></path><path d="M26.2658831,7.23378008 L26.4249636,7.95408833" id="Stroke-57" stroke="#1A1816" stroke-linecap="round" stroke-linejoin="round"></path><path d="M27.7047075,6.91560383 L27.863788,7.63591208" id="Stroke-59" stroke="#1A1816" stroke-linecap="round" stroke-linejoin="round"></path><path d="M12.8681026,8.05718813 C12.9028013,8.21654363 12.8739747,8.38338563 12.7858932,8.52081638 C12.6983455,8.65824713 12.5600843,8.75503688 12.4010038,8.79033038 L5.0875717,10.4084839 L4.61086405,8.24648963 L11.9237623,6.62833613 C12.255269,6.55507538 12.5830389,6.76469738 12.6561732,7.09624238 L12.8681026,8.05718813 Z" id="Stroke-61" stroke="#1A1816" stroke-linecap="round" stroke-linejoin="round"></path><path d="M22.1422818,14.1923214 C21.5465307,14.3238699 20.9561179,13.9468711 20.8247964,13.3500901 C20.6934749,12.7527744 21.0692892,12.1624104 21.6650403,12.0303271 C22.2613253,11.8982439 22.8512043,12.2752426 22.9825258,12.8725584" id="Stroke-63" stroke="#1A1816" stroke-linecap="round" stroke-linejoin="round"></path><path d="M27.2194052,11.5571803 C27.3512605,12.1539613 26.9749123,12.7448601 26.3791612,12.8764086" id="Stroke-65" stroke="#1A1816" stroke-linecap="round" stroke-linejoin="round"></path><path d="M23.0624397,13.2327125 C22.9305844,12.6359315 23.3074664,12.0450328 23.9032175,11.9129495" id="Stroke-67" stroke="#1A1816" stroke-linecap="round" stroke-linejoin="round"></path><path d="M24.860423,12.8348051 C24.7291015,12.2374893 25.1054496,11.6471253 25.7012007,11.5150421" id="Stroke-69" stroke="#1A1816" stroke-linecap="round" stroke-linejoin="round"></path></g></g></g></g></g></g></svg>